M48
INCH,TZ
T1C0.0118
T2C0.0276
T3C0.0320
T4C0.0430
T5C0.0472
T6C0.1260
%
G90
G05
T1
X37008Y-33543
X37047Y-43425
X39252Y-31142
X41102Y-29331
X43268Y-45945
X43661Y-26929
X46142Y-46969
X50394Y-26929
X52402Y-49213
X57480Y-26929
X58740Y-51457
X61220Y-44567
X62244Y-52677
X64567Y-26969
X64567Y-38425
X65020Y-41260
X66890Y-26969
X67224Y-50354
X68445Y-40650
X68661Y-54961
X69016Y-26969
X70984Y-42835
X71575Y-26969
X72992Y-30079
X73465Y-38031
X73504Y-52559
X73543Y-42480
X74173Y-56811
X75177Y-42500
X75197Y-30079
X75197Y-32362
X75197Y-34685
X77323Y-47795
T2
X60630Y-45276
X61220Y-45276
T3
X66972Y-41179
X66972Y-42045
X67972Y-41179
X67972Y-42045
X68972Y-41179
X68972Y-42045
X69972Y-41179
X69972Y-42045
X70972Y-41179
X70972Y-42045
T4
X65996Y-28836
X65996Y-29836
X65996Y-30836
X65996Y-31836
X65996Y-32836
X65996Y-33836
X65996Y-34836
X65996Y-35836
X65996Y-36836
X65996Y-37836
X65996Y-38836
X65996Y-39836
X71996Y-28836
X71996Y-29836
X71996Y-30836
X71996Y-31836
X71996Y-32836
X71996Y-33836
X71996Y-34836
X71996Y-35836
X71996Y-36836
X71996Y-37836
X71996Y-38836
X71996Y-39836
T5
X41457Y-36614
X41457Y-40551
X42283Y-38583
X44882Y-31516
X44882Y-38209
X46850Y-32343
X46850Y-39035
X48819Y-31516
X48819Y-38209
X51969Y-31516
X51969Y-38209
X53937Y-32343
X53937Y-39035
X55906Y-31516
X55906Y-38209
X59055Y-31516
X59055Y-38209
X61024Y-32343
X61024Y-39035
X62992Y-31516
X62992Y-38209
X67453Y-51465
X68767Y-47754
X68890Y-49885
X73762Y-53699
X75076Y-49988
X75199Y-52120
T6
X40748Y-30807
X45020Y-45748
X60709Y-51280
X74331Y-27874
X74409Y-44882
T0
M30
