M48
INCH,TZ
T1C0.0354
T2C0.0670
T3C0.1181
T4C0.1350
%
G90
G05
T1
X74894Y-37717
X74894Y-38898
T2
X39961Y-36417
X39961Y-40748
X44685Y-30020
X44685Y-36713
X49016Y-30020
X49016Y-36713
X51772Y-30020
X51772Y-36713
X56102Y-30020
X56102Y-36713
X58858Y-30020
X58858Y-36713
X63189Y-30020
X63189Y-36713
X65977Y-51151
X67423Y-47069
X72286Y-53385
X73732Y-49303
T3
X37618Y-38583
X38484Y-36614
X38484Y-40551
X44882Y-28543
X44882Y-35236
X46850Y-27677
X46850Y-34370
X48819Y-28543
X48819Y-35236
X51969Y-28543
X51969Y-35236
X53937Y-27677
X53937Y-34370
X55906Y-28543
X55906Y-35236
X59055Y-28543
X59055Y-35236
X61024Y-27677
X61024Y-34370
X62992Y-28543
X62992Y-35236
X64492Y-48328
X64651Y-50473
X65965Y-46762
X70801Y-50562
X70960Y-52707
X72274Y-48996
T4
X39961Y-38583
X46850Y-30020
X46850Y-36713
X53937Y-30020
X53937Y-36713
X61024Y-30020
X61024Y-36713
X66700Y-49110
X73009Y-51344
T0
M30
