G04 #@! TF.GenerationSoftware,KiCad,Pcbnew,(6.0.8-1)-1*
G04 #@! TF.CreationDate,2022-11-22T18:57:47+00:00*
G04 #@! TF.ProjectId,nine-nano-no-jumpers,6e696e65-2d6e-4616-9e6f-2d6e6f2d6a75,v1.0.0*
G04 #@! TF.SameCoordinates,Original*
G04 #@! TF.FileFunction,Legend,Bot*
G04 #@! TF.FilePolarity,Positive*
%FSLAX46Y46*%
G04 Gerber Fmt 4.6, Leading zero omitted, Abs format (unit mm)*
G04 Created by KiCad (PCBNEW (6.0.8-1)-1) date 2022-11-22 18:57:47*
%MOMM*%
%LPD*%
G01*
G04 APERTURE LIST*
%ADD10C,0.100000*%
%ADD11C,0.150000*%
%ADD12C,1.752600*%
%ADD13C,1.000000*%
G04 APERTURE END LIST*
D10*
G04 #@! TO.C,U1*
X177307142Y-98621428D02*
X177078571Y-98621428D01*
X177221428Y-99021428D02*
X177221428Y-98507142D01*
X177192857Y-98450000D01*
X177135714Y-98421428D01*
X177078571Y-98421428D01*
X176621428Y-99021428D02*
X176621428Y-98707142D01*
X176650000Y-98650000D01*
X176707142Y-98621428D01*
X176821428Y-98621428D01*
X176878571Y-98650000D01*
X176621428Y-98992857D02*
X176678571Y-99021428D01*
X176821428Y-99021428D01*
X176878571Y-98992857D01*
X176907142Y-98935714D01*
X176907142Y-98878571D01*
X176878571Y-98821428D01*
X176821428Y-98792857D01*
X176678571Y-98792857D01*
X176621428Y-98764285D01*
X176078571Y-98992857D02*
X176135714Y-99021428D01*
X176250000Y-99021428D01*
X176307142Y-98992857D01*
X176335714Y-98964285D01*
X176364285Y-98907142D01*
X176364285Y-98735714D01*
X176335714Y-98678571D01*
X176307142Y-98650000D01*
X176250000Y-98621428D01*
X176135714Y-98621428D01*
X176078571Y-98650000D01*
X175592857Y-98992857D02*
X175650000Y-99021428D01*
X175764285Y-99021428D01*
X175821428Y-98992857D01*
X175850000Y-98935714D01*
X175850000Y-98707142D01*
X175821428Y-98650000D01*
X175764285Y-98621428D01*
X175650000Y-98621428D01*
X175592857Y-98650000D01*
X175564285Y-98707142D01*
X175564285Y-98764285D01*
X175850000Y-98821428D01*
X174592857Y-99021428D02*
X174592857Y-98421428D01*
X174592857Y-98992857D02*
X174650000Y-99021428D01*
X174764285Y-99021428D01*
X174821428Y-98992857D01*
X174850000Y-98964285D01*
X174878571Y-98907142D01*
X174878571Y-98735714D01*
X174850000Y-98678571D01*
X174821428Y-98650000D01*
X174764285Y-98621428D01*
X174650000Y-98621428D01*
X174592857Y-98650000D01*
X174221428Y-99021428D02*
X174278571Y-98992857D01*
X174307142Y-98964285D01*
X174335714Y-98907142D01*
X174335714Y-98735714D01*
X174307142Y-98678571D01*
X174278571Y-98650000D01*
X174221428Y-98621428D01*
X174135714Y-98621428D01*
X174078571Y-98650000D01*
X174050000Y-98678571D01*
X174021428Y-98735714D01*
X174021428Y-98907142D01*
X174050000Y-98964285D01*
X174078571Y-98992857D01*
X174135714Y-99021428D01*
X174221428Y-99021428D01*
X173821428Y-98621428D02*
X173707142Y-99021428D01*
X173592857Y-98735714D01*
X173478571Y-99021428D01*
X173364285Y-98621428D01*
X173135714Y-98621428D02*
X173135714Y-99021428D01*
X173135714Y-98678571D02*
X173107142Y-98650000D01*
X173050000Y-98621428D01*
X172964285Y-98621428D01*
X172907142Y-98650000D01*
X172878571Y-98707142D01*
X172878571Y-99021428D01*
D11*
X170550000Y-95611904D02*
X170473809Y-95611904D01*
X170397619Y-95650000D01*
X170359523Y-95688095D01*
X170321428Y-95764285D01*
X170283333Y-95916666D01*
X170283333Y-96107142D01*
X170321428Y-96259523D01*
X170359523Y-96335714D01*
X170397619Y-96373809D01*
X170473809Y-96411904D01*
X170550000Y-96411904D01*
X170626190Y-96373809D01*
X170664285Y-96335714D01*
X170702380Y-96259523D01*
X170740476Y-96107142D01*
X170740476Y-95916666D01*
X170702380Y-95764285D01*
X170664285Y-95688095D01*
X170626190Y-95650000D01*
X170550000Y-95611904D01*
X169521428Y-96411904D02*
X169978571Y-96411904D01*
X169750000Y-96411904D02*
X169750000Y-95611904D01*
X169826190Y-95726190D01*
X169902380Y-95802380D01*
X169978571Y-95840476D01*
X168759523Y-96411904D02*
X169216666Y-96411904D01*
X168988095Y-96411904D02*
X168988095Y-95611904D01*
X169064285Y-95726190D01*
X169140476Y-95802380D01*
X169216666Y-95840476D01*
X181587191Y-98205904D02*
X181511000Y-98205904D01*
X181434810Y-98244000D01*
X181396714Y-98282095D01*
X181358619Y-98358285D01*
X181320524Y-98510666D01*
X181320524Y-98701142D01*
X181358619Y-98853523D01*
X181396714Y-98929714D01*
X181434810Y-98967809D01*
X181511000Y-99005904D01*
X181587191Y-99005904D01*
X181663381Y-98967809D01*
X181701476Y-98929714D01*
X181739571Y-98853523D01*
X181777667Y-98701142D01*
X181777667Y-98510666D01*
X181739571Y-98358285D01*
X181701476Y-98282095D01*
X181663381Y-98244000D01*
X181587191Y-98205904D01*
X180558619Y-99005904D02*
X181015762Y-99005904D01*
X180787191Y-99005904D02*
X180787191Y-98205904D01*
X180863381Y-98320190D01*
X180939571Y-98396380D01*
X181015762Y-98434476D01*
X180063381Y-98205904D02*
X179987191Y-98205904D01*
X179911000Y-98244000D01*
X179872905Y-98282095D01*
X179834810Y-98358285D01*
X179796714Y-98510666D01*
X179796714Y-98701142D01*
X179834810Y-98853523D01*
X179872905Y-98929714D01*
X179911000Y-98967809D01*
X179987191Y-99005904D01*
X180063381Y-99005904D01*
X180139571Y-98967809D01*
X180177667Y-98929714D01*
X180215762Y-98853523D01*
X180253857Y-98701142D01*
X180253857Y-98510666D01*
X180215762Y-98358285D01*
X180177667Y-98282095D01*
X180139571Y-98244000D01*
X180063381Y-98205904D01*
X181587191Y-88045904D02*
X181511000Y-88045904D01*
X181434810Y-88084000D01*
X181396714Y-88122095D01*
X181358619Y-88198285D01*
X181320524Y-88350666D01*
X181320524Y-88541142D01*
X181358619Y-88693523D01*
X181396714Y-88769714D01*
X181434810Y-88807809D01*
X181511000Y-88845904D01*
X181587191Y-88845904D01*
X181663381Y-88807809D01*
X181701476Y-88769714D01*
X181739571Y-88693523D01*
X181777667Y-88541142D01*
X181777667Y-88350666D01*
X181739571Y-88198285D01*
X181701476Y-88122095D01*
X181663381Y-88084000D01*
X181587191Y-88045904D01*
X180825286Y-88045904D02*
X180749095Y-88045904D01*
X180672905Y-88084000D01*
X180634810Y-88122095D01*
X180596714Y-88198285D01*
X180558619Y-88350666D01*
X180558619Y-88541142D01*
X180596714Y-88693523D01*
X180634810Y-88769714D01*
X180672905Y-88807809D01*
X180749095Y-88845904D01*
X180825286Y-88845904D01*
X180901476Y-88807809D01*
X180939571Y-88769714D01*
X180977667Y-88693523D01*
X181015762Y-88541142D01*
X181015762Y-88350666D01*
X180977667Y-88198285D01*
X180939571Y-88122095D01*
X180901476Y-88084000D01*
X180825286Y-88045904D01*
X180253857Y-88122095D02*
X180215762Y-88084000D01*
X180139571Y-88045904D01*
X179949095Y-88045904D01*
X179872905Y-88084000D01*
X179834810Y-88122095D01*
X179796714Y-88198285D01*
X179796714Y-88274476D01*
X179834810Y-88388761D01*
X180291952Y-88845904D01*
X179796714Y-88845904D01*
X181276095Y-78685904D02*
X181542761Y-78304952D01*
X181733238Y-78685904D02*
X181733238Y-77885904D01*
X181428476Y-77885904D01*
X181352285Y-77924000D01*
X181314190Y-77962095D01*
X181276095Y-78038285D01*
X181276095Y-78152571D01*
X181314190Y-78228761D01*
X181352285Y-78266857D01*
X181428476Y-78304952D01*
X181733238Y-78304952D01*
X180971333Y-78647809D02*
X180857047Y-78685904D01*
X180666571Y-78685904D01*
X180590380Y-78647809D01*
X180552285Y-78609714D01*
X180514190Y-78533523D01*
X180514190Y-78457333D01*
X180552285Y-78381142D01*
X180590380Y-78343047D01*
X180666571Y-78304952D01*
X180818952Y-78266857D01*
X180895142Y-78228761D01*
X180933238Y-78190666D01*
X180971333Y-78114476D01*
X180971333Y-78038285D01*
X180933238Y-77962095D01*
X180895142Y-77924000D01*
X180818952Y-77885904D01*
X180628476Y-77885904D01*
X180514190Y-77924000D01*
X180285619Y-77885904D02*
X179828476Y-77885904D01*
X180057047Y-78685904D02*
X180057047Y-77885904D01*
X170512810Y-82965904D02*
X170436619Y-82965904D01*
X170360429Y-83004000D01*
X170322333Y-83042095D01*
X170284238Y-83118285D01*
X170246143Y-83270666D01*
X170246143Y-83461142D01*
X170284238Y-83613523D01*
X170322333Y-83689714D01*
X170360429Y-83727809D01*
X170436619Y-83765904D01*
X170512810Y-83765904D01*
X170589000Y-83727809D01*
X170627095Y-83689714D01*
X170665190Y-83613523D01*
X170703286Y-83461142D01*
X170703286Y-83270666D01*
X170665190Y-83118285D01*
X170627095Y-83042095D01*
X170589000Y-83004000D01*
X170512810Y-82965904D01*
X169484238Y-83765904D02*
X169941381Y-83765904D01*
X169712810Y-83765904D02*
X169712810Y-82965904D01*
X169789000Y-83080190D01*
X169865190Y-83156380D01*
X169941381Y-83194476D01*
X169217571Y-82965904D02*
X168684238Y-82965904D01*
X169027095Y-83765904D01*
X170246143Y-93925904D02*
X170703286Y-93925904D01*
X170474714Y-93925904D02*
X170474714Y-93125904D01*
X170550905Y-93240190D01*
X170627095Y-93316380D01*
X170703286Y-93354476D01*
X169750905Y-93125904D02*
X169674714Y-93125904D01*
X169598524Y-93164000D01*
X169560429Y-93202095D01*
X169522333Y-93278285D01*
X169484238Y-93430666D01*
X169484238Y-93621142D01*
X169522333Y-93773523D01*
X169560429Y-93849714D01*
X169598524Y-93887809D01*
X169674714Y-93925904D01*
X169750905Y-93925904D01*
X169827095Y-93887809D01*
X169865190Y-93849714D01*
X169903286Y-93773523D01*
X169941381Y-93621142D01*
X169941381Y-93430666D01*
X169903286Y-93278285D01*
X169865190Y-93202095D01*
X169827095Y-93164000D01*
X169750905Y-93125904D01*
X168989000Y-93125904D02*
X168912810Y-93125904D01*
X168836619Y-93164000D01*
X168798524Y-93202095D01*
X168760429Y-93278285D01*
X168722333Y-93430666D01*
X168722333Y-93621142D01*
X168760429Y-93773523D01*
X168798524Y-93849714D01*
X168836619Y-93887809D01*
X168912810Y-93925904D01*
X168989000Y-93925904D01*
X169065190Y-93887809D01*
X169103286Y-93849714D01*
X169141381Y-93773523D01*
X169179476Y-93621142D01*
X169179476Y-93430666D01*
X169141381Y-93278285D01*
X169103286Y-93202095D01*
X169065190Y-93164000D01*
X168989000Y-93125904D01*
X181320524Y-91385904D02*
X181777667Y-91385904D01*
X181549095Y-91385904D02*
X181549095Y-90585904D01*
X181625286Y-90700190D01*
X181701476Y-90776380D01*
X181777667Y-90814476D01*
X180558619Y-91385904D02*
X181015762Y-91385904D01*
X180787191Y-91385904D02*
X180787191Y-90585904D01*
X180863381Y-90700190D01*
X180939571Y-90776380D01*
X181015762Y-90814476D01*
X179834810Y-90585904D02*
X180215762Y-90585904D01*
X180253857Y-90966857D01*
X180215762Y-90928761D01*
X180139571Y-90890666D01*
X179949095Y-90890666D01*
X179872905Y-90928761D01*
X179834810Y-90966857D01*
X179796714Y-91043047D01*
X179796714Y-91233523D01*
X179834810Y-91309714D01*
X179872905Y-91347809D01*
X179949095Y-91385904D01*
X180139571Y-91385904D01*
X180215762Y-91347809D01*
X180253857Y-91309714D01*
X170512810Y-90575904D02*
X170436619Y-90575904D01*
X170360429Y-90614000D01*
X170322333Y-90652095D01*
X170284238Y-90728285D01*
X170246143Y-90880666D01*
X170246143Y-91071142D01*
X170284238Y-91223523D01*
X170322333Y-91299714D01*
X170360429Y-91337809D01*
X170436619Y-91375904D01*
X170512810Y-91375904D01*
X170589000Y-91337809D01*
X170627095Y-91299714D01*
X170665190Y-91223523D01*
X170703286Y-91071142D01*
X170703286Y-90880666D01*
X170665190Y-90728285D01*
X170627095Y-90652095D01*
X170589000Y-90614000D01*
X170512810Y-90575904D01*
X169941381Y-90652095D02*
X169903286Y-90614000D01*
X169827095Y-90575904D01*
X169636619Y-90575904D01*
X169560429Y-90614000D01*
X169522333Y-90652095D01*
X169484238Y-90728285D01*
X169484238Y-90804476D01*
X169522333Y-90918761D01*
X169979476Y-91375904D01*
X169484238Y-91375904D01*
X168798524Y-90842571D02*
X168798524Y-91375904D01*
X168989000Y-90537809D02*
X169179476Y-91109238D01*
X168684238Y-91109238D01*
X181314190Y-75384000D02*
X181390381Y-75345904D01*
X181504667Y-75345904D01*
X181618952Y-75384000D01*
X181695143Y-75460190D01*
X181733238Y-75536380D01*
X181771333Y-75688761D01*
X181771333Y-75803047D01*
X181733238Y-75955428D01*
X181695143Y-76031619D01*
X181618952Y-76107809D01*
X181504667Y-76145904D01*
X181428476Y-76145904D01*
X181314190Y-76107809D01*
X181276095Y-76069714D01*
X181276095Y-75803047D01*
X181428476Y-75803047D01*
X180933238Y-76145904D02*
X180933238Y-75345904D01*
X180476095Y-76145904D01*
X180476095Y-75345904D01*
X180095143Y-76145904D02*
X180095143Y-75345904D01*
X179904667Y-75345904D01*
X179790381Y-75384000D01*
X179714190Y-75460190D01*
X179676095Y-75536380D01*
X179638000Y-75688761D01*
X179638000Y-75803047D01*
X179676095Y-75955428D01*
X179714190Y-76031619D01*
X179790381Y-76107809D01*
X179904667Y-76145904D01*
X180095143Y-76145904D01*
X170398523Y-80464000D02*
X170474714Y-80425904D01*
X170589000Y-80425904D01*
X170703285Y-80464000D01*
X170779476Y-80540190D01*
X170817571Y-80616380D01*
X170855666Y-80768761D01*
X170855666Y-80883047D01*
X170817571Y-81035428D01*
X170779476Y-81111619D01*
X170703285Y-81187809D01*
X170589000Y-81225904D01*
X170512809Y-81225904D01*
X170398523Y-81187809D01*
X170360428Y-81149714D01*
X170360428Y-80883047D01*
X170512809Y-80883047D01*
X170017571Y-81225904D02*
X170017571Y-80425904D01*
X169560428Y-81225904D01*
X169560428Y-80425904D01*
X169179476Y-81225904D02*
X169179476Y-80425904D01*
X168989000Y-80425904D01*
X168874714Y-80464000D01*
X168798523Y-80540190D01*
X168760428Y-80616380D01*
X168722333Y-80768761D01*
X168722333Y-80883047D01*
X168760428Y-81035428D01*
X168798523Y-81111619D01*
X168874714Y-81187809D01*
X168989000Y-81225904D01*
X169179476Y-81225904D01*
X170512810Y-75275904D02*
X170436619Y-75275904D01*
X170360429Y-75314000D01*
X170322333Y-75352095D01*
X170284238Y-75428285D01*
X170246143Y-75580666D01*
X170246143Y-75771142D01*
X170284238Y-75923523D01*
X170322333Y-75999714D01*
X170360429Y-76037809D01*
X170436619Y-76075904D01*
X170512810Y-76075904D01*
X170589000Y-76037809D01*
X170627095Y-75999714D01*
X170665190Y-75923523D01*
X170703286Y-75771142D01*
X170703286Y-75580666D01*
X170665190Y-75428285D01*
X170627095Y-75352095D01*
X170589000Y-75314000D01*
X170512810Y-75275904D01*
X169750905Y-75275904D02*
X169674714Y-75275904D01*
X169598524Y-75314000D01*
X169560429Y-75352095D01*
X169522333Y-75428285D01*
X169484238Y-75580666D01*
X169484238Y-75771142D01*
X169522333Y-75923523D01*
X169560429Y-75999714D01*
X169598524Y-76037809D01*
X169674714Y-76075904D01*
X169750905Y-76075904D01*
X169827095Y-76037809D01*
X169865190Y-75999714D01*
X169903286Y-75923523D01*
X169941381Y-75771142D01*
X169941381Y-75580666D01*
X169903286Y-75428285D01*
X169865190Y-75352095D01*
X169827095Y-75314000D01*
X169750905Y-75275904D01*
X169027095Y-75618761D02*
X169103286Y-75580666D01*
X169141381Y-75542571D01*
X169179476Y-75466380D01*
X169179476Y-75428285D01*
X169141381Y-75352095D01*
X169103286Y-75314000D01*
X169027095Y-75275904D01*
X168874714Y-75275904D01*
X168798524Y-75314000D01*
X168760429Y-75352095D01*
X168722333Y-75428285D01*
X168722333Y-75466380D01*
X168760429Y-75542571D01*
X168798524Y-75580666D01*
X168874714Y-75618761D01*
X169027095Y-75618761D01*
X169103286Y-75656857D01*
X169141381Y-75694952D01*
X169179476Y-75771142D01*
X169179476Y-75923523D01*
X169141381Y-75999714D01*
X169103286Y-76037809D01*
X169027095Y-76075904D01*
X168874714Y-76075904D01*
X168798524Y-76037809D01*
X168760429Y-75999714D01*
X168722333Y-75923523D01*
X168722333Y-75771142D01*
X168760429Y-75694952D01*
X168798524Y-75656857D01*
X168874714Y-75618761D01*
X181587191Y-82965904D02*
X181511000Y-82965904D01*
X181434810Y-83004000D01*
X181396714Y-83042095D01*
X181358619Y-83118285D01*
X181320524Y-83270666D01*
X181320524Y-83461142D01*
X181358619Y-83613523D01*
X181396714Y-83689714D01*
X181434810Y-83727809D01*
X181511000Y-83765904D01*
X181587191Y-83765904D01*
X181663381Y-83727809D01*
X181701476Y-83689714D01*
X181739571Y-83613523D01*
X181777667Y-83461142D01*
X181777667Y-83270666D01*
X181739571Y-83118285D01*
X181701476Y-83042095D01*
X181663381Y-83004000D01*
X181587191Y-82965904D01*
X181053857Y-82965904D02*
X180558619Y-82965904D01*
X180825286Y-83270666D01*
X180711000Y-83270666D01*
X180634810Y-83308761D01*
X180596714Y-83346857D01*
X180558619Y-83423047D01*
X180558619Y-83613523D01*
X180596714Y-83689714D01*
X180634810Y-83727809D01*
X180711000Y-83765904D01*
X180939571Y-83765904D01*
X181015762Y-83727809D01*
X181053857Y-83689714D01*
X179796714Y-83765904D02*
X180253857Y-83765904D01*
X180025286Y-83765904D02*
X180025286Y-82965904D01*
X180101476Y-83080190D01*
X180177667Y-83156380D01*
X180253857Y-83194476D01*
X181320524Y-93925904D02*
X181777667Y-93925904D01*
X181549095Y-93925904D02*
X181549095Y-93125904D01*
X181625286Y-93240190D01*
X181701476Y-93316380D01*
X181777667Y-93354476D01*
X180558619Y-93925904D02*
X181015762Y-93925904D01*
X180787191Y-93925904D02*
X180787191Y-93125904D01*
X180863381Y-93240190D01*
X180939571Y-93316380D01*
X181015762Y-93354476D01*
X180291952Y-93125904D02*
X179796714Y-93125904D01*
X180063381Y-93430666D01*
X179949095Y-93430666D01*
X179872905Y-93468761D01*
X179834810Y-93506857D01*
X179796714Y-93583047D01*
X179796714Y-93773523D01*
X179834810Y-93849714D01*
X179872905Y-93887809D01*
X179949095Y-93925904D01*
X180177667Y-93925904D01*
X180253857Y-93887809D01*
X180291952Y-93849714D01*
X170512810Y-88075904D02*
X170436619Y-88075904D01*
X170360429Y-88114000D01*
X170322333Y-88152095D01*
X170284238Y-88228285D01*
X170246143Y-88380666D01*
X170246143Y-88571142D01*
X170284238Y-88723523D01*
X170322333Y-88799714D01*
X170360429Y-88837809D01*
X170436619Y-88875904D01*
X170512810Y-88875904D01*
X170589000Y-88837809D01*
X170627095Y-88799714D01*
X170665190Y-88723523D01*
X170703286Y-88571142D01*
X170703286Y-88380666D01*
X170665190Y-88228285D01*
X170627095Y-88152095D01*
X170589000Y-88114000D01*
X170512810Y-88075904D01*
X169941381Y-88152095D02*
X169903286Y-88114000D01*
X169827095Y-88075904D01*
X169636619Y-88075904D01*
X169560429Y-88114000D01*
X169522333Y-88152095D01*
X169484238Y-88228285D01*
X169484238Y-88304476D01*
X169522333Y-88418761D01*
X169979476Y-88875904D01*
X169484238Y-88875904D01*
X169179476Y-88152095D02*
X169141381Y-88114000D01*
X169065190Y-88075904D01*
X168874714Y-88075904D01*
X168798524Y-88114000D01*
X168760429Y-88152095D01*
X168722333Y-88228285D01*
X168722333Y-88304476D01*
X168760429Y-88418761D01*
X169217571Y-88875904D01*
X168722333Y-88875904D01*
X181853857Y-80425904D02*
X181587191Y-81225904D01*
X181320524Y-80425904D01*
X180596714Y-81149714D02*
X180634810Y-81187809D01*
X180749095Y-81225904D01*
X180825286Y-81225904D01*
X180939571Y-81187809D01*
X181015762Y-81111619D01*
X181053857Y-81035428D01*
X181091952Y-80883047D01*
X181091952Y-80768761D01*
X181053857Y-80616380D01*
X181015762Y-80540190D01*
X180939571Y-80464000D01*
X180825286Y-80425904D01*
X180749095Y-80425904D01*
X180634810Y-80464000D01*
X180596714Y-80502095D01*
X179796714Y-81149714D02*
X179834810Y-81187809D01*
X179949095Y-81225904D01*
X180025286Y-81225904D01*
X180139571Y-81187809D01*
X180215762Y-81111619D01*
X180253857Y-81035428D01*
X180291952Y-80883047D01*
X180291952Y-80768761D01*
X180253857Y-80616380D01*
X180215762Y-80540190D01*
X180139571Y-80464000D01*
X180025286Y-80425904D01*
X179949095Y-80425904D01*
X179834810Y-80464000D01*
X179796714Y-80502095D01*
X170246143Y-99005904D02*
X170703286Y-99005904D01*
X170474714Y-99005904D02*
X170474714Y-98205904D01*
X170550905Y-98320190D01*
X170627095Y-98396380D01*
X170703286Y-98434476D01*
X169750905Y-98205904D02*
X169674714Y-98205904D01*
X169598524Y-98244000D01*
X169560429Y-98282095D01*
X169522333Y-98358285D01*
X169484238Y-98510666D01*
X169484238Y-98701142D01*
X169522333Y-98853523D01*
X169560429Y-98929714D01*
X169598524Y-98967809D01*
X169674714Y-99005904D01*
X169750905Y-99005904D01*
X169827095Y-98967809D01*
X169865190Y-98929714D01*
X169903286Y-98853523D01*
X169941381Y-98701142D01*
X169941381Y-98510666D01*
X169903286Y-98358285D01*
X169865190Y-98282095D01*
X169827095Y-98244000D01*
X169750905Y-98205904D01*
X168798524Y-98472571D02*
X168798524Y-99005904D01*
X168989000Y-98167809D02*
X169179476Y-98739238D01*
X168684238Y-98739238D01*
X170398523Y-77924000D02*
X170474714Y-77885904D01*
X170589000Y-77885904D01*
X170703285Y-77924000D01*
X170779476Y-78000190D01*
X170817571Y-78076380D01*
X170855666Y-78228761D01*
X170855666Y-78343047D01*
X170817571Y-78495428D01*
X170779476Y-78571619D01*
X170703285Y-78647809D01*
X170589000Y-78685904D01*
X170512809Y-78685904D01*
X170398523Y-78647809D01*
X170360428Y-78609714D01*
X170360428Y-78343047D01*
X170512809Y-78343047D01*
X170017571Y-78685904D02*
X170017571Y-77885904D01*
X169560428Y-78685904D01*
X169560428Y-77885904D01*
X169179476Y-78685904D02*
X169179476Y-77885904D01*
X168989000Y-77885904D01*
X168874714Y-77924000D01*
X168798523Y-78000190D01*
X168760428Y-78076380D01*
X168722333Y-78228761D01*
X168722333Y-78343047D01*
X168760428Y-78495428D01*
X168798523Y-78571619D01*
X168874714Y-78647809D01*
X168989000Y-78685904D01*
X169179476Y-78685904D01*
X170512810Y-85575904D02*
X170436619Y-85575904D01*
X170360429Y-85614000D01*
X170322333Y-85652095D01*
X170284238Y-85728285D01*
X170246143Y-85880666D01*
X170246143Y-86071142D01*
X170284238Y-86223523D01*
X170322333Y-86299714D01*
X170360429Y-86337809D01*
X170436619Y-86375904D01*
X170512810Y-86375904D01*
X170589000Y-86337809D01*
X170627095Y-86299714D01*
X170665190Y-86223523D01*
X170703286Y-86071142D01*
X170703286Y-85880666D01*
X170665190Y-85728285D01*
X170627095Y-85652095D01*
X170589000Y-85614000D01*
X170512810Y-85575904D01*
X169941381Y-85652095D02*
X169903286Y-85614000D01*
X169827095Y-85575904D01*
X169636619Y-85575904D01*
X169560429Y-85614000D01*
X169522333Y-85652095D01*
X169484238Y-85728285D01*
X169484238Y-85804476D01*
X169522333Y-85918761D01*
X169979476Y-86375904D01*
X169484238Y-86375904D01*
X168989000Y-85575904D02*
X168912810Y-85575904D01*
X168836619Y-85614000D01*
X168798524Y-85652095D01*
X168760429Y-85728285D01*
X168722333Y-85880666D01*
X168722333Y-86071142D01*
X168760429Y-86223523D01*
X168798524Y-86299714D01*
X168836619Y-86337809D01*
X168912810Y-86375904D01*
X168989000Y-86375904D01*
X169065190Y-86337809D01*
X169103286Y-86299714D01*
X169141381Y-86223523D01*
X169179476Y-86071142D01*
X169179476Y-85880666D01*
X169141381Y-85728285D01*
X169103286Y-85652095D01*
X169065190Y-85614000D01*
X168989000Y-85575904D01*
X170512810Y-72805904D02*
X170436619Y-72805904D01*
X170360429Y-72844000D01*
X170322333Y-72882095D01*
X170284238Y-72958285D01*
X170246143Y-73110666D01*
X170246143Y-73301142D01*
X170284238Y-73453523D01*
X170322333Y-73529714D01*
X170360429Y-73567809D01*
X170436619Y-73605904D01*
X170512810Y-73605904D01*
X170589000Y-73567809D01*
X170627095Y-73529714D01*
X170665190Y-73453523D01*
X170703286Y-73301142D01*
X170703286Y-73110666D01*
X170665190Y-72958285D01*
X170627095Y-72882095D01*
X170589000Y-72844000D01*
X170512810Y-72805904D01*
X169750905Y-72805904D02*
X169674714Y-72805904D01*
X169598524Y-72844000D01*
X169560429Y-72882095D01*
X169522333Y-72958285D01*
X169484238Y-73110666D01*
X169484238Y-73301142D01*
X169522333Y-73453523D01*
X169560429Y-73529714D01*
X169598524Y-73567809D01*
X169674714Y-73605904D01*
X169750905Y-73605904D01*
X169827095Y-73567809D01*
X169865190Y-73529714D01*
X169903286Y-73453523D01*
X169941381Y-73301142D01*
X169941381Y-73110666D01*
X169903286Y-72958285D01*
X169865190Y-72882095D01*
X169827095Y-72844000D01*
X169750905Y-72805904D01*
X168798524Y-72805904D02*
X168950905Y-72805904D01*
X169027095Y-72844000D01*
X169065190Y-72882095D01*
X169141381Y-72996380D01*
X169179476Y-73148761D01*
X169179476Y-73453523D01*
X169141381Y-73529714D01*
X169103286Y-73567809D01*
X169027095Y-73605904D01*
X168874714Y-73605904D01*
X168798524Y-73567809D01*
X168760429Y-73529714D01*
X168722333Y-73453523D01*
X168722333Y-73263047D01*
X168760429Y-73186857D01*
X168798524Y-73148761D01*
X168874714Y-73110666D01*
X169027095Y-73110666D01*
X169103286Y-73148761D01*
X169141381Y-73186857D01*
X169179476Y-73263047D01*
X181587191Y-85505904D02*
X181511000Y-85505904D01*
X181434810Y-85544000D01*
X181396714Y-85582095D01*
X181358619Y-85658285D01*
X181320524Y-85810666D01*
X181320524Y-86001142D01*
X181358619Y-86153523D01*
X181396714Y-86229714D01*
X181434810Y-86267809D01*
X181511000Y-86305904D01*
X181587191Y-86305904D01*
X181663381Y-86267809D01*
X181701476Y-86229714D01*
X181739571Y-86153523D01*
X181777667Y-86001142D01*
X181777667Y-85810666D01*
X181739571Y-85658285D01*
X181701476Y-85582095D01*
X181663381Y-85544000D01*
X181587191Y-85505904D01*
X181015762Y-85582095D02*
X180977667Y-85544000D01*
X180901476Y-85505904D01*
X180711000Y-85505904D01*
X180634810Y-85544000D01*
X180596714Y-85582095D01*
X180558619Y-85658285D01*
X180558619Y-85734476D01*
X180596714Y-85848761D01*
X181053857Y-86305904D01*
X180558619Y-86305904D01*
X180177667Y-86305904D02*
X180025286Y-86305904D01*
X179949095Y-86267809D01*
X179911000Y-86229714D01*
X179834810Y-86115428D01*
X179796714Y-85963047D01*
X179796714Y-85658285D01*
X179834810Y-85582095D01*
X179872905Y-85544000D01*
X179949095Y-85505904D01*
X180101476Y-85505904D01*
X180177667Y-85544000D01*
X180215762Y-85582095D01*
X180253857Y-85658285D01*
X180253857Y-85848761D01*
X180215762Y-85924952D01*
X180177667Y-85963047D01*
X180101476Y-86001142D01*
X179949095Y-86001142D01*
X179872905Y-85963047D01*
X179834810Y-85924952D01*
X179796714Y-85848761D01*
X181320524Y-96465904D02*
X181777667Y-96465904D01*
X181549095Y-96465904D02*
X181549095Y-95665904D01*
X181625286Y-95780190D01*
X181701476Y-95856380D01*
X181777667Y-95894476D01*
X180558619Y-96465904D02*
X181015762Y-96465904D01*
X180787191Y-96465904D02*
X180787191Y-95665904D01*
X180863381Y-95780190D01*
X180939571Y-95856380D01*
X181015762Y-95894476D01*
X179796714Y-96465904D02*
X180253857Y-96465904D01*
X180025286Y-96465904D02*
X180025286Y-95665904D01*
X180101476Y-95780190D01*
X180177667Y-95856380D01*
X180253857Y-95894476D01*
X181276095Y-73605904D02*
X181542762Y-73224952D01*
X181733238Y-73605904D02*
X181733238Y-72805904D01*
X181428476Y-72805904D01*
X181352286Y-72844000D01*
X181314191Y-72882095D01*
X181276095Y-72958285D01*
X181276095Y-73072571D01*
X181314191Y-73148761D01*
X181352286Y-73186857D01*
X181428476Y-73224952D01*
X181733238Y-73224952D01*
X180971334Y-73377333D02*
X180590381Y-73377333D01*
X181047524Y-73605904D02*
X180780857Y-72805904D01*
X180514191Y-73605904D01*
X180323715Y-72805904D02*
X180133238Y-73605904D01*
X179980857Y-73034476D01*
X179828476Y-73605904D01*
X179638000Y-72805904D01*
G04 #@! TO.C,J3*
X185072000Y-107247380D02*
X185072000Y-106580714D01*
X185072000Y-106771190D02*
X185024380Y-106675952D01*
X184976761Y-106628333D01*
X184881523Y-106580714D01*
X184786285Y-106580714D01*
X184452952Y-107247380D02*
X184452952Y-106580714D01*
X184452952Y-106247380D02*
X184500571Y-106295000D01*
X184452952Y-106342619D01*
X184405333Y-106295000D01*
X184452952Y-106247380D01*
X184452952Y-106342619D01*
X183548190Y-106580714D02*
X183548190Y-107390238D01*
X183595809Y-107485476D01*
X183643428Y-107533095D01*
X183738666Y-107580714D01*
X183881523Y-107580714D01*
X183976761Y-107533095D01*
X183548190Y-107199761D02*
X183643428Y-107247380D01*
X183833904Y-107247380D01*
X183929142Y-107199761D01*
X183976761Y-107152142D01*
X184024380Y-107056904D01*
X184024380Y-106771190D01*
X183976761Y-106675952D01*
X183929142Y-106628333D01*
X183833904Y-106580714D01*
X183643428Y-106580714D01*
X183548190Y-106628333D01*
X183072000Y-107247380D02*
X183072000Y-106247380D01*
X182643428Y-107247380D02*
X182643428Y-106723571D01*
X182691047Y-106628333D01*
X182786285Y-106580714D01*
X182929142Y-106580714D01*
X183024380Y-106628333D01*
X183072000Y-106675952D01*
X182310095Y-106580714D02*
X181929142Y-106580714D01*
X182167238Y-106247380D02*
X182167238Y-107104523D01*
X182119619Y-107199761D01*
X182024380Y-107247380D01*
X181929142Y-107247380D01*
G04 #@! TO.C,SWF1*
X189352380Y-102595238D02*
X189352380Y-102404761D01*
X189400000Y-102309523D01*
X189495238Y-102214285D01*
X189685714Y-102166666D01*
X190019047Y-102166666D01*
X190209523Y-102214285D01*
X190304761Y-102309523D01*
X190352380Y-102404761D01*
X190352380Y-102595238D01*
X190304761Y-102690476D01*
X190209523Y-102785714D01*
X190019047Y-102833333D01*
X189685714Y-102833333D01*
X189495238Y-102785714D01*
X189400000Y-102690476D01*
X189352380Y-102595238D01*
X190352380Y-92100000D02*
X189352380Y-92100000D01*
G04 #@! TO.C,J1*
X157369047Y-115071428D02*
X158130952Y-115071428D01*
X151369047Y-115071428D02*
X152130952Y-115071428D01*
X151750000Y-115452380D02*
X151750000Y-114690476D01*
G04 #@! TO.C,J3*
X181660000Y-108075000D02*
X168840000Y-108065000D01*
X181660000Y-105535000D02*
X181660000Y-108075000D01*
G04 #@! TO.C,G\u002A\u002A\u002A*
G36*
X138695041Y-116134241D02*
G01*
X138676981Y-116191013D01*
X138649461Y-116260568D01*
X138617103Y-116329889D01*
X138582575Y-116393312D01*
X138548547Y-116445172D01*
X138471023Y-116536618D01*
X138377068Y-116621737D01*
X138272491Y-116693378D01*
X138158365Y-116750814D01*
X138035758Y-116793319D01*
X137948172Y-116817413D01*
X128729724Y-116821907D01*
X128729706Y-116916005D01*
X128729797Y-116945330D01*
X128730103Y-116991903D01*
X128730611Y-117052295D01*
X128731302Y-117125199D01*
X128732161Y-117209311D01*
X128733171Y-117303324D01*
X128734315Y-117405934D01*
X128735577Y-117515834D01*
X128736940Y-117631719D01*
X128738388Y-117752283D01*
X128739903Y-117876220D01*
X128741469Y-118002226D01*
X128743070Y-118128995D01*
X128744688Y-118255220D01*
X128746308Y-118379596D01*
X128747913Y-118500818D01*
X128749486Y-118617580D01*
X128751010Y-118728576D01*
X128752468Y-118832501D01*
X128753845Y-118928049D01*
X128755124Y-119013915D01*
X128756287Y-119088792D01*
X128757319Y-119151376D01*
X128758202Y-119200361D01*
X128758920Y-119234441D01*
X128759457Y-119252310D01*
X128772119Y-119352317D01*
X128800388Y-119448241D01*
X128843006Y-119536645D01*
X128898809Y-119616135D01*
X128966631Y-119685312D01*
X129045309Y-119742783D01*
X129133676Y-119787150D01*
X129230570Y-119817017D01*
X129232173Y-119817324D01*
X129241063Y-119818364D01*
X129255281Y-119819340D01*
X129275195Y-119820252D01*
X129301176Y-119821101D01*
X129333593Y-119821885D01*
X129372815Y-119822606D01*
X129419211Y-119823263D01*
X129473152Y-119823855D01*
X129535005Y-119824384D01*
X129605141Y-119824849D01*
X129683929Y-119825250D01*
X129771739Y-119825587D01*
X129868939Y-119825860D01*
X129975900Y-119826069D01*
X130092989Y-119826214D01*
X130220578Y-119826295D01*
X130359036Y-119826312D01*
X130508730Y-119826265D01*
X130670032Y-119826154D01*
X130843311Y-119825978D01*
X131028935Y-119825739D01*
X131227274Y-119825435D01*
X131438698Y-119825067D01*
X131663576Y-119824636D01*
X131902277Y-119824139D01*
X132155171Y-119823579D01*
X132422627Y-119822955D01*
X132705014Y-119822266D01*
X133002702Y-119821513D01*
X133316061Y-119820695D01*
X133645459Y-119819814D01*
X133991266Y-119818868D01*
X134353851Y-119817858D01*
X134733585Y-119816783D01*
X134963940Y-119816122D01*
X135234407Y-119815328D01*
X135488273Y-119814562D01*
X135726044Y-119813819D01*
X135948228Y-119813098D01*
X136155331Y-119812393D01*
X136347861Y-119811703D01*
X136526325Y-119811023D01*
X136691229Y-119810351D01*
X136843081Y-119809682D01*
X136982388Y-119809014D01*
X137109656Y-119808343D01*
X137225394Y-119807666D01*
X137330107Y-119806979D01*
X137424304Y-119806279D01*
X137508490Y-119805563D01*
X137583174Y-119804827D01*
X137648862Y-119804068D01*
X137706061Y-119803282D01*
X137755278Y-119802467D01*
X137797021Y-119801619D01*
X137831796Y-119800734D01*
X137860110Y-119799809D01*
X137882471Y-119798841D01*
X137899386Y-119797826D01*
X137911361Y-119796761D01*
X137918903Y-119795643D01*
X137996077Y-119774740D01*
X138082418Y-119737030D01*
X138161259Y-119684830D01*
X138235123Y-119616713D01*
X138264831Y-119583504D01*
X138307138Y-119526500D01*
X138340811Y-119464978D01*
X138369744Y-119392448D01*
X138377496Y-119369582D01*
X138383504Y-119349191D01*
X138387867Y-119328842D01*
X138390854Y-119305610D01*
X138392738Y-119276568D01*
X138393788Y-119238788D01*
X138394277Y-119189344D01*
X138394474Y-119125310D01*
X138394486Y-119093674D01*
X138394308Y-119027726D01*
X138393905Y-118950344D01*
X138393305Y-118865372D01*
X138392537Y-118776653D01*
X138391629Y-118688028D01*
X138390609Y-118603341D01*
X138386356Y-118278442D01*
X138409534Y-118243417D01*
X138414915Y-118235817D01*
X138449202Y-118203386D01*
X138490380Y-118184431D01*
X138534833Y-118178953D01*
X138578945Y-118186952D01*
X138619102Y-118208429D01*
X138651685Y-118243385D01*
X138674842Y-118278377D01*
X138682018Y-118616447D01*
X138683198Y-118677516D01*
X138684574Y-118767166D01*
X138685602Y-118858178D01*
X138686258Y-118946775D01*
X138686515Y-119029185D01*
X138686347Y-119101633D01*
X138685729Y-119160344D01*
X138684825Y-119210850D01*
X138683527Y-119266354D01*
X138681889Y-119309528D01*
X138679627Y-119343359D01*
X138676455Y-119370835D01*
X138672091Y-119394943D01*
X138666249Y-119418668D01*
X138658646Y-119445000D01*
X138626526Y-119537378D01*
X138573738Y-119648180D01*
X138508235Y-119748059D01*
X138429190Y-119838431D01*
X138398963Y-119867380D01*
X138306209Y-119941691D01*
X138204866Y-120002105D01*
X138093348Y-120049473D01*
X137970069Y-120084644D01*
X137966725Y-120085344D01*
X137959527Y-120086543D01*
X137950326Y-120087680D01*
X137938622Y-120088759D01*
X137923915Y-120089784D01*
X137905704Y-120090757D01*
X137883488Y-120091683D01*
X137856768Y-120092564D01*
X137825042Y-120093405D01*
X137787811Y-120094208D01*
X137744573Y-120094978D01*
X137694828Y-120095717D01*
X137638077Y-120096429D01*
X137573817Y-120097118D01*
X137501549Y-120097787D01*
X137420773Y-120098440D01*
X137330988Y-120099080D01*
X137231693Y-120099710D01*
X137122387Y-120100334D01*
X137002572Y-120100955D01*
X136871745Y-120101578D01*
X136729407Y-120102205D01*
X136575057Y-120102839D01*
X136408194Y-120103485D01*
X136228319Y-120104146D01*
X136034930Y-120104825D01*
X135827527Y-120105526D01*
X135605610Y-120106252D01*
X135368678Y-120107007D01*
X135116231Y-120107794D01*
X134847768Y-120108617D01*
X134562789Y-120109478D01*
X134260793Y-120110383D01*
X134211677Y-120110529D01*
X133953022Y-120111289D01*
X133695805Y-120112030D01*
X133440758Y-120112748D01*
X133188611Y-120113444D01*
X132940095Y-120114114D01*
X132695942Y-120114758D01*
X132456881Y-120115374D01*
X132223644Y-120115960D01*
X131996961Y-120116515D01*
X131777563Y-120117036D01*
X131566182Y-120117523D01*
X131363548Y-120117973D01*
X131170392Y-120118385D01*
X130987444Y-120118758D01*
X130815436Y-120119090D01*
X130655098Y-120119378D01*
X130507162Y-120119623D01*
X130372357Y-120119821D01*
X130251416Y-120119971D01*
X130145068Y-120120072D01*
X130054045Y-120120122D01*
X129979077Y-120120119D01*
X129920896Y-120120063D01*
X129224586Y-120118873D01*
X129137625Y-120095165D01*
X129104862Y-120085627D01*
X128986450Y-120040257D01*
X128877798Y-119981004D01*
X128779793Y-119908827D01*
X128693323Y-119824680D01*
X128619276Y-119729521D01*
X128558539Y-119624305D01*
X128512002Y-119509988D01*
X128480551Y-119387527D01*
X128479456Y-119381101D01*
X128477556Y-119366669D01*
X128475756Y-119347998D01*
X128474039Y-119324257D01*
X128472384Y-119294616D01*
X128470771Y-119258246D01*
X128469182Y-119214318D01*
X128467596Y-119162001D01*
X128465994Y-119100465D01*
X128464356Y-119028881D01*
X128462662Y-118946419D01*
X128460894Y-118852250D01*
X128459031Y-118745543D01*
X128457053Y-118625469D01*
X128454941Y-118491198D01*
X128452676Y-118341901D01*
X128450238Y-118176747D01*
X128447606Y-117994906D01*
X128445809Y-117867775D01*
X128444058Y-117739331D01*
X128442419Y-117613615D01*
X128440888Y-117489745D01*
X128439461Y-117366842D01*
X128438131Y-117244025D01*
X128436896Y-117120415D01*
X128435751Y-116995130D01*
X128434690Y-116867291D01*
X128433709Y-116736018D01*
X128432804Y-116600430D01*
X128432144Y-116488965D01*
X128755870Y-116488965D01*
X133330124Y-116488220D01*
X133387337Y-116488211D01*
X133735917Y-116488144D01*
X134067418Y-116488064D01*
X134382217Y-116487969D01*
X134680692Y-116487860D01*
X134963220Y-116487734D01*
X135230179Y-116487591D01*
X135481946Y-116487431D01*
X135718900Y-116487251D01*
X135941417Y-116487051D01*
X136149875Y-116486831D01*
X136344652Y-116486588D01*
X136526126Y-116486323D01*
X136694673Y-116486034D01*
X136850672Y-116485720D01*
X136994500Y-116485381D01*
X137126535Y-116485015D01*
X137247154Y-116484622D01*
X137356735Y-116484200D01*
X137455656Y-116483748D01*
X137544293Y-116483267D01*
X137623025Y-116482753D01*
X137692230Y-116482208D01*
X137752284Y-116481629D01*
X137803565Y-116481016D01*
X137846451Y-116480368D01*
X137881320Y-116479683D01*
X137908549Y-116478962D01*
X137928516Y-116478202D01*
X137941597Y-116477404D01*
X137948172Y-116476566D01*
X137966110Y-116471576D01*
X138004184Y-116459003D01*
X138040138Y-116445102D01*
X138045184Y-116442920D01*
X138131296Y-116395794D01*
X138207779Y-116334565D01*
X138273641Y-116260339D01*
X138327895Y-116174219D01*
X138369550Y-116077310D01*
X138370094Y-116075697D01*
X138371650Y-116070509D01*
X138373101Y-116064332D01*
X138374453Y-116056574D01*
X138375707Y-116046646D01*
X138376868Y-116033957D01*
X138377940Y-116017917D01*
X138378925Y-115997935D01*
X138379827Y-115973422D01*
X138380651Y-115943788D01*
X138381400Y-115908441D01*
X138382076Y-115866792D01*
X138382685Y-115818250D01*
X138383229Y-115762226D01*
X138383712Y-115698128D01*
X138384138Y-115625367D01*
X138384510Y-115543353D01*
X138384832Y-115451494D01*
X138385108Y-115349202D01*
X138385341Y-115235885D01*
X138385534Y-115110953D01*
X138385692Y-114973817D01*
X138385818Y-114823885D01*
X138385915Y-114660568D01*
X138385988Y-114483275D01*
X138386039Y-114291416D01*
X138386072Y-114084401D01*
X138386092Y-113861640D01*
X138386101Y-113622542D01*
X138386103Y-113366517D01*
X138386100Y-113115677D01*
X138386090Y-112876079D01*
X138386068Y-112652832D01*
X138386031Y-112445346D01*
X138385976Y-112253032D01*
X138385898Y-112075298D01*
X138385796Y-111911557D01*
X138385664Y-111761218D01*
X138385501Y-111623692D01*
X138385301Y-111498389D01*
X138385062Y-111384718D01*
X138384780Y-111282092D01*
X138384452Y-111189919D01*
X138384074Y-111107611D01*
X138383643Y-111034577D01*
X138383155Y-110970228D01*
X138382606Y-110913975D01*
X138381994Y-110865227D01*
X138381315Y-110823395D01*
X138380565Y-110787889D01*
X138379740Y-110758120D01*
X138378838Y-110733497D01*
X138377855Y-110713432D01*
X138376787Y-110697335D01*
X138375631Y-110684616D01*
X138374383Y-110674684D01*
X138373039Y-110666952D01*
X138371597Y-110660828D01*
X138370053Y-110655724D01*
X138369978Y-110655498D01*
X138343460Y-110585797D01*
X138312912Y-110527241D01*
X138274453Y-110473509D01*
X138224200Y-110418280D01*
X138217431Y-110411470D01*
X138179835Y-110375519D01*
X138147100Y-110348663D01*
X138113966Y-110326956D01*
X138075172Y-110306450D01*
X138072974Y-110305357D01*
X138064347Y-110300709D01*
X138057055Y-110296300D01*
X138050638Y-110292127D01*
X138044636Y-110288181D01*
X138038590Y-110284456D01*
X138032040Y-110280947D01*
X138024525Y-110277647D01*
X138015587Y-110274549D01*
X138004765Y-110271647D01*
X137991599Y-110268935D01*
X137975631Y-110266406D01*
X137956398Y-110264055D01*
X137933443Y-110261873D01*
X137906306Y-110259857D01*
X137874525Y-110257998D01*
X137837642Y-110256290D01*
X137795197Y-110254728D01*
X137746731Y-110253304D01*
X137691782Y-110252013D01*
X137629891Y-110250848D01*
X137560599Y-110249803D01*
X137483446Y-110248871D01*
X137397972Y-110248046D01*
X137303717Y-110247321D01*
X137200222Y-110246691D01*
X137087026Y-110246149D01*
X136963669Y-110245688D01*
X136829693Y-110245302D01*
X136684636Y-110244985D01*
X136528040Y-110244730D01*
X136359444Y-110244531D01*
X136178389Y-110244382D01*
X135984415Y-110244276D01*
X135777062Y-110244207D01*
X135555870Y-110244169D01*
X135320380Y-110244155D01*
X135070131Y-110244158D01*
X134804664Y-110244173D01*
X134523519Y-110244194D01*
X134226237Y-110244212D01*
X133912356Y-110244224D01*
X133581419Y-110244221D01*
X133320623Y-110244218D01*
X132971859Y-110244239D01*
X132640233Y-110244289D01*
X132325524Y-110244368D01*
X132027510Y-110244476D01*
X131745970Y-110244614D01*
X131480683Y-110244782D01*
X131231428Y-110244981D01*
X130997985Y-110245212D01*
X130780131Y-110245474D01*
X130577646Y-110245769D01*
X130390309Y-110246097D01*
X130217898Y-110246458D01*
X130060193Y-110246853D01*
X129916972Y-110247282D01*
X129788014Y-110247745D01*
X129673099Y-110248244D01*
X129572005Y-110248778D01*
X129484510Y-110249349D01*
X129410395Y-110249956D01*
X129349437Y-110250600D01*
X129301417Y-110251282D01*
X129266111Y-110252002D01*
X129243301Y-110252760D01*
X129232763Y-110253558D01*
X129194803Y-110262104D01*
X129114649Y-110289847D01*
X129037099Y-110328819D01*
X128967021Y-110376368D01*
X128909284Y-110429840D01*
X128905494Y-110434108D01*
X128855718Y-110500066D01*
X128812642Y-110575076D01*
X128780789Y-110651344D01*
X128760379Y-110712655D01*
X128758124Y-113600810D01*
X128755870Y-116488965D01*
X128432144Y-116488965D01*
X128431970Y-116459648D01*
X128431203Y-116312791D01*
X128430497Y-116158978D01*
X128429849Y-115997331D01*
X128429254Y-115826967D01*
X128428706Y-115647009D01*
X128428202Y-115456574D01*
X128427737Y-115254784D01*
X128427307Y-115040757D01*
X128426906Y-114813614D01*
X128426530Y-114572475D01*
X128426175Y-114316459D01*
X128425836Y-114044686D01*
X128425509Y-113756275D01*
X128425420Y-113673266D01*
X128425129Y-113372608D01*
X128424904Y-113089241D01*
X128424746Y-112822982D01*
X128424656Y-112573652D01*
X128424633Y-112341071D01*
X128424678Y-112125059D01*
X128424791Y-111925435D01*
X128424974Y-111742021D01*
X128425225Y-111574635D01*
X128425545Y-111423098D01*
X128425936Y-111287230D01*
X128426396Y-111166850D01*
X128426928Y-111061779D01*
X128427530Y-110971836D01*
X128428203Y-110896841D01*
X128428948Y-110836615D01*
X128429765Y-110790978D01*
X128430654Y-110759748D01*
X128431616Y-110742747D01*
X128441110Y-110672824D01*
X128470739Y-110549584D01*
X128515578Y-110434118D01*
X128574973Y-110327362D01*
X128648272Y-110230252D01*
X128734823Y-110143725D01*
X128833973Y-110068715D01*
X128945070Y-110006159D01*
X128967722Y-109995579D01*
X129040936Y-109965895D01*
X129113736Y-109944303D01*
X129191978Y-109929292D01*
X129281517Y-109919351D01*
X129295499Y-109918702D01*
X129328552Y-109917950D01*
X129379115Y-109917247D01*
X129447183Y-109916594D01*
X129532751Y-109915990D01*
X129635816Y-109915436D01*
X129756373Y-109914930D01*
X129894417Y-109914474D01*
X130049945Y-109914068D01*
X130222952Y-109913711D01*
X130413434Y-109913403D01*
X130621386Y-109913144D01*
X130846804Y-109912935D01*
X131089684Y-109912775D01*
X131350021Y-109912665D01*
X131627812Y-109912604D01*
X131923051Y-109912592D01*
X132235735Y-109912630D01*
X132565858Y-109912717D01*
X132913418Y-109912853D01*
X133278409Y-109913039D01*
X133660827Y-109913275D01*
X133835375Y-109913391D01*
X134153061Y-109913607D01*
X134453939Y-109913816D01*
X134738472Y-109914023D01*
X135007126Y-109914228D01*
X135260363Y-109914433D01*
X135498649Y-109914641D01*
X135722446Y-109914853D01*
X135932220Y-109915072D01*
X136128434Y-109915300D01*
X136311552Y-109915537D01*
X136482038Y-109915788D01*
X136640357Y-109916053D01*
X136786973Y-109916334D01*
X136922349Y-109916634D01*
X137046950Y-109916954D01*
X137161239Y-109917297D01*
X137265681Y-109917664D01*
X137360741Y-109918058D01*
X137446881Y-109918481D01*
X137524566Y-109918933D01*
X137594261Y-109919419D01*
X137656428Y-109919939D01*
X137711533Y-109920495D01*
X137760039Y-109921090D01*
X137802411Y-109921725D01*
X137839112Y-109922403D01*
X137870607Y-109923125D01*
X137897360Y-109923894D01*
X137919834Y-109924711D01*
X137938494Y-109925579D01*
X137953804Y-109926500D01*
X137966228Y-109927474D01*
X137976230Y-109928506D01*
X137984274Y-109929595D01*
X137990824Y-109930746D01*
X137996344Y-109931959D01*
X137999576Y-109932741D01*
X138109225Y-109964271D01*
X138206123Y-110003172D01*
X138294140Y-110051562D01*
X138377148Y-110111562D01*
X138459020Y-110185293D01*
X138531114Y-110266405D01*
X138598623Y-110366834D01*
X138653464Y-110478098D01*
X138694836Y-110598793D01*
X138718931Y-110686379D01*
X138718931Y-116046655D01*
X138695041Y-116134241D01*
G37*
G36*
X137021853Y-113869246D02*
G01*
X137090753Y-113878622D01*
X137185310Y-113899066D01*
X137276416Y-113929096D01*
X137371229Y-113970791D01*
X137419595Y-113995862D01*
X137532204Y-114067514D01*
X137632975Y-114151426D01*
X137721217Y-114246544D01*
X137796237Y-114351813D01*
X137857343Y-114466179D01*
X137903844Y-114588587D01*
X137935048Y-114717983D01*
X137950262Y-114853312D01*
X137951501Y-114912659D01*
X137942065Y-115040826D01*
X137916748Y-115164949D01*
X137876568Y-115283864D01*
X137822541Y-115396403D01*
X137755683Y-115501401D01*
X137677011Y-115597693D01*
X137587542Y-115684112D01*
X137488292Y-115759493D01*
X137380277Y-115822669D01*
X137264515Y-115872475D01*
X137142021Y-115907745D01*
X137013813Y-115927313D01*
X136940129Y-115931181D01*
X136808841Y-115925458D01*
X136682138Y-115904049D01*
X136561048Y-115867893D01*
X136446602Y-115817924D01*
X136339830Y-115755081D01*
X136241762Y-115680299D01*
X136153428Y-115594516D01*
X136075858Y-115498668D01*
X136010082Y-115393691D01*
X135957130Y-115280523D01*
X135918031Y-115160100D01*
X135893817Y-115033359D01*
X135885517Y-114901237D01*
X135885812Y-114872208D01*
X135894218Y-114752924D01*
X135914971Y-114641865D01*
X135949098Y-114534690D01*
X135997625Y-114427058D01*
X136037082Y-114356943D01*
X136112574Y-114249916D01*
X136199798Y-114154328D01*
X136297359Y-114070939D01*
X136403867Y-114000507D01*
X136517927Y-113943791D01*
X136638149Y-113901548D01*
X136763139Y-113874537D01*
X136891504Y-113863517D01*
X137021853Y-113869246D01*
G37*
G36*
X133669296Y-110650430D02*
G01*
X133792189Y-110668554D01*
X133911681Y-110700994D01*
X134026424Y-110747243D01*
X134135068Y-110806795D01*
X134236263Y-110879142D01*
X134328659Y-110963777D01*
X134410907Y-111060194D01*
X134481656Y-111167886D01*
X134539558Y-111286344D01*
X134565358Y-111355594D01*
X134599098Y-111482977D01*
X134616282Y-111611229D01*
X134617364Y-111739003D01*
X134602802Y-111864948D01*
X134573052Y-111987715D01*
X134528571Y-112105955D01*
X134469815Y-112218319D01*
X134397241Y-112323458D01*
X134311304Y-112420023D01*
X134212463Y-112506664D01*
X134101173Y-112582031D01*
X134054480Y-112607997D01*
X133958049Y-112651613D01*
X133854612Y-112684986D01*
X133739655Y-112709712D01*
X133671571Y-112718429D01*
X133553822Y-112721354D01*
X133432872Y-112710395D01*
X133312744Y-112686006D01*
X133197461Y-112648639D01*
X133133235Y-112620616D01*
X133022514Y-112558219D01*
X132919356Y-112481911D01*
X132825627Y-112393543D01*
X132743191Y-112294970D01*
X132673914Y-112188045D01*
X132619662Y-112074620D01*
X132615985Y-112065241D01*
X132575402Y-111937354D01*
X132551529Y-111808469D01*
X132543866Y-111679900D01*
X132551912Y-111552962D01*
X132575170Y-111428968D01*
X132613137Y-111309234D01*
X132665316Y-111195073D01*
X132731206Y-111087799D01*
X132810307Y-110988727D01*
X132902120Y-110899170D01*
X133006144Y-110820445D01*
X133121881Y-110753863D01*
X133170725Y-110731237D01*
X133293719Y-110687026D01*
X133418712Y-110659159D01*
X133544354Y-110647130D01*
X133669296Y-110650430D01*
G37*
G36*
X133658425Y-117267184D02*
G01*
X133780475Y-117283503D01*
X133900435Y-117314417D01*
X134016923Y-117360013D01*
X134128556Y-117420378D01*
X134233949Y-117495596D01*
X134331721Y-117585754D01*
X134379469Y-117639175D01*
X134457429Y-117745833D01*
X134520440Y-117860165D01*
X134568173Y-117980714D01*
X134600301Y-118106024D01*
X134616495Y-118234638D01*
X134616427Y-118365102D01*
X134599768Y-118495957D01*
X134566190Y-118625748D01*
X134553226Y-118662926D01*
X134499869Y-118782844D01*
X134432536Y-118893817D01*
X134352509Y-118994823D01*
X134261069Y-119084841D01*
X134159496Y-119162850D01*
X134049071Y-119227827D01*
X133931074Y-119278753D01*
X133806788Y-119314606D01*
X133677492Y-119334364D01*
X133603424Y-119338061D01*
X133477090Y-119332485D01*
X133352416Y-119312620D01*
X133233003Y-119279127D01*
X133122453Y-119232665D01*
X133011603Y-119168542D01*
X132905985Y-119088918D01*
X132812715Y-118998318D01*
X132732363Y-118898011D01*
X132665501Y-118789263D01*
X132612703Y-118673341D01*
X132574539Y-118551514D01*
X132551582Y-118425047D01*
X132544404Y-118295208D01*
X132553578Y-118163264D01*
X132579675Y-118030482D01*
X132595372Y-117979297D01*
X132625579Y-117902280D01*
X132663023Y-117823341D01*
X132704747Y-117748571D01*
X132747794Y-117684063D01*
X132772792Y-117651803D01*
X132861762Y-117554441D01*
X132959709Y-117470989D01*
X133065248Y-117401533D01*
X133176997Y-117346157D01*
X133293573Y-117304949D01*
X133413591Y-117277993D01*
X133535670Y-117265377D01*
X133658425Y-117267184D01*
G37*
G36*
X130425013Y-113874817D02*
G01*
X130489450Y-113882545D01*
X130611257Y-113911630D01*
X130733228Y-113957476D01*
X130847932Y-114017942D01*
X130953980Y-114091919D01*
X131049983Y-114178298D01*
X131134553Y-114275971D01*
X131206299Y-114383827D01*
X131263834Y-114500758D01*
X131269154Y-114513901D01*
X131310389Y-114640495D01*
X131334982Y-114769208D01*
X131343204Y-114898541D01*
X131335327Y-115026994D01*
X131311623Y-115153067D01*
X131272363Y-115275263D01*
X131217820Y-115392082D01*
X131148264Y-115502024D01*
X131063968Y-115603591D01*
X131037395Y-115630781D01*
X130940658Y-115715500D01*
X130835717Y-115786009D01*
X130721360Y-115842938D01*
X130596375Y-115886920D01*
X130459551Y-115918586D01*
X130446062Y-115920700D01*
X130394840Y-115925316D01*
X130333999Y-115927025D01*
X130269318Y-115925889D01*
X130206579Y-115921968D01*
X130151560Y-115915325D01*
X130062893Y-115897056D01*
X129936685Y-115856433D01*
X129817696Y-115799883D01*
X129706215Y-115727550D01*
X129602533Y-115639581D01*
X129562598Y-115599384D01*
X129480017Y-115500902D01*
X129412332Y-115395279D01*
X129358019Y-115280275D01*
X129336374Y-115221016D01*
X129302624Y-115091763D01*
X129286021Y-114959970D01*
X129286671Y-114826807D01*
X129304682Y-114693448D01*
X129337463Y-114570827D01*
X129386611Y-114450625D01*
X129450143Y-114338311D01*
X129526929Y-114235064D01*
X129615840Y-114142060D01*
X129715746Y-114060476D01*
X129825517Y-113991489D01*
X129944023Y-113936278D01*
X130070133Y-113896018D01*
X130120345Y-113886011D01*
X130192129Y-113877264D01*
X130270641Y-113872360D01*
X130350173Y-113871483D01*
X130425013Y-113874817D01*
G37*
G04 #@! TD*
D12*
G04 #@! TO.C,U1*
X167630000Y-73244000D03*
X167630000Y-75784000D03*
X167630000Y-78324000D03*
X167630000Y-80864000D03*
X167630000Y-83404000D03*
X167630000Y-85944000D03*
X167630000Y-88484000D03*
X167630000Y-91024000D03*
X167630000Y-93564000D03*
X167630000Y-96104000D03*
X167630000Y-98644000D03*
X167630000Y-101184000D03*
X182870000Y-101184000D03*
X182870000Y-98644000D03*
X182870000Y-96104000D03*
X182870000Y-93564000D03*
X182870000Y-91024000D03*
X182870000Y-88484000D03*
X182870000Y-85944000D03*
X182870000Y-83404000D03*
X182870000Y-80864000D03*
X182870000Y-78324000D03*
X182870000Y-75784000D03*
X182870000Y-73244000D03*
G04 #@! TD*
D13*
G04 #@! TO.C,J1*
X154000000Y-115000000D03*
X155500000Y-115000000D03*
G04 #@! TD*
M02*
